<svg version="1.2" xmlns="http://www.w3.org/2000/svg" viewBox="0 0 800 800" width="800" height="800"><defs><linearGradient id="P" gradientUnits="userSpaceOnUse"/><linearGradient id="g1" x1="124" y1="151.5" x2="676" y2="648.5" href="#P"><stop stop-color="#fff"/><stop offset="1" stop-color="#0d0d0d"/></linearGradient><linearGradient id="g2" x1="82.9" y1="114.5" x2="716" y2="684.6" href="#P"><stop stop-color="#fff"/><stop offset="1" stop-color="#0d0d0d"/></linearGradient><linearGradient id="g3" x1="82.9" y1="114.5" x2="716" y2="684.6" href="#P"><stop stop-color="#fff"/><stop offset="1" stop-color="#0d0d0d"/></linearGradient><linearGradient id="g4" x1="0" y1="0" x2="0" y2="0" href="#P"><stop stop-color="#fff"/><stop offset="1" stop-color="#0d0d0d"/></linearGradient><linearGradient id="g5" x1="0" y1="0" x2="0" y2="0" href="#P"><stop stop-color="#fff"/><stop offset="1" stop-color="#0d0d0d"/></linearGradient></defs><style>.a{fill:#7d7d7d}.b{fill:none;stroke:url(#g1);stroke-width:25}.c{fill:url(#g2);stroke:url(#g3);stroke-width:20}.d{fill:url(#g4);stroke:url(#g5);stroke-width:20}</style><path fill-rule="evenodd" d="m322.5 502.3q-21 0-35.9-14.9-14.9-14.9-14.9-35.9 0-21 14.9-35.9 14.9-14.9 35.9-14.9 21 0 35.9 14.9 14.9 14.9 14.9 35.9 0 21-14.9 35.9-14.9 14.9-35.9 14.9zm150.9-77.1q-1.6-2.1-4.2-2.5l-36.3-5.6q-3-9.5-8.1-19.4 3.5-5 10.7-14 7.1-9 10.1-13.2 1.6-2.2 1.6-4.6 0-2.8-1.4-4.4-7.1-10.1-32.8-33.7-2.3-2-4.9-2-3 0-4.8 1.8l-28.2 21.2q-8.1-4.1-17.9-7.3l-5.5-36.5q-0.2-2.6-2.3-4.3-2.1-1.7-4.9-1.7h-44q-5.8 0-7.2 5.6-2.6 9.9-5.7 36.9-9.4 3-18.1 7.5l-27.4-21.2q-2.6-2-5.2-2-4.4 0-18.7 14.2-14.4 14.2-19.6 21.4-1.8 2.5-1.8 4.5 0 2.4 2 4.8 13.3 16.1 21.2 27.4-4.9 9.1-7.7 18.3l-36.9 5.5q-2.2 0.4-3.8 2.6-1.6 2.2-1.6 4.6v44q0 2.6 1.6 4.7 1.6 2.1 4.2 2.5l36.3 5.4q2.8 9.7 8.1 19.6-3.5 5-10.7 14-7.1 9-10.1 13.2-1.6 2.2-1.6 4.6 0 2.6 1.4 4.5 7.7 10.8 32.8 33.4 2.1 2.2 4.9 2.2 3 0 5-1.8l28-21.2q8.1 4.1 17.9 7.3l5.5 36.5q0.2 2.6 2.3 4.3 2.1 1.7 4.9 1.7h44q5.8 0 7.2-5.6 2.6-9.9 5.7-36.9 9.4-3 18.1-7.5l27.4 21.4q2.8 1.8 5.2 1.8 4.3 0 18.6-14.1 14.3-14.1 19.7-21.5 1.8-1.9 1.8-4.5 0-2.6-2-5-14.3-17.5-21.2-27.4 3.9-7.3 7.7-18.1l36.7-5.5q2.4-0.4 4-2.6 1.6-2.2 1.6-4.6v-44q0-2.6-1.6-4.7z"/><path fill-rule="evenodd" class="a" d="m461.9 404.8q-21.1-2.5-34.2-19.3-13.2-16.7-10.7-37.8 2.6-21.1 19.3-34.2 16.7-13.2 37.8-10.7 21.1 2.6 34.2 19.3 13.2 16.7 10.7 37.8-2.6 21.1-19.3 34.3-16.7 13.1-37.8 10.6zm160.6-59.3q-1.4-2.3-3.9-3l-35.8-9.9q-1.8-9.9-5.8-20.5 4.2-4.5 12.4-12.7 8.3-8.2 11.8-12.1 1.8-2 2.1-4.4 0.3-2.7-0.9-4.5-5.9-11-28.8-37.8-2.1-2.3-4.7-2.6-3-0.3-5 1.3l-30.8 17.9q-7.7-5.2-17.1-9.5l-1.2-37.3q0.1-2.6-1.7-4.6-1.9-1.9-4.7-2.3l-44.2-5.2q-5.8-0.7-7.9 4.7-3.7 9.6-10.2 36.3-9.7 1.9-19 5.4l-24.9-24.6q-2.4-2.3-4.9-2.6-4.4-0.5-20.6 12-16.1 12.5-22.1 19.1-2.1 2.3-2.4 4.3-0.3 2.4 1.4 5 11.5 17.8 18.1 30.1-6.1 8.5-10 17.4l-37.7 1.1q-2.2 0.1-4.1 2.1-1.8 2-2.1 4.4l-5.3 44.2q-0.3 2.6 1 4.9 1.4 2.3 3.9 3l35.8 9.7q1.6 10.1 5.8 20.7-4.2 4.6-12.4 12.8-8.3 8.2-11.8 12-1.8 2-2.1 4.4-0.3 2.6 0.9 4.7 6.4 11.7 28.8 37.4 1.9 2.5 4.7 2.8 3 0.3 5.2-1.2l30.6-18q7.7 5.2 17.1 9.5l1.2 37.3q-0.1 2.7 1.7 4.6 1.9 1.9 4.7 2.3l44.2 5.3q5.8 0.7 7.9-4.8 3.7-9.6 10.2-36.3 9.7-1.9 19-5.4l24.9 24.8q2.6 2.1 4.9 2.4 4.4 0.5 20.5-11.9 16-12.4 22.2-19.1 2.1-1.8 2.4-4.4 0.3-2.6-1.4-5.2-12.3-19.3-18-30 4.8-6.9 9.9-17.2l37.5-1.2q2.4-0.1 4.3-2.1 1.8-2 2.1-4.4l5.3-44.2q0.3-2.6-1-4.9z"/><path class="b" d="m400 673c-152.6 0-276-122-276-273 0-151 123.4-273 276-273 152.6 0 276 122 276 273 0 151-123.4 273-276 273z"/><path class="c" d="m158.1 260l48.4-54.6-46.9-12.1-16.6 16.6zm66.8-81.4l66.1-31-38.2-29.7-21.9 8.7zm93.2-42.5l73.3-8.2-27-40.8-23.7 1.2zm105.2-15.8l70.6 21.6-8.6-48.2-22.3-8.3zm-177.8 511.1l-52-50.2-14 45.9 15.8 17.2zm-77.9-69.6l-27.9-66.7-31 36.6 7.7 22.1zm-38.3-94.1l-5-73-41.6 25 0.2 23.6zm-11.2-104.9l24.3-69-48.1 6.5-9.1 21.7zm509.6 191.2l-52.4 51.4 46.2 15.5 17.9-15.6zm-72.8 77.1l-68.5 26.5 36.4 32.5 22.5-7.2zm-96.5 36.2l-74.2 3.1 24.2 42.9 24 0.5zm-106.8 8.5l-69.3-26.6 5.2 49 21.8 9.9zm214.1-500.9l48.8 54.1 17.2-45.2-14.7-18.4zm73.4 75.3l23.4 69 33.7-34.6-6.2-22.7zm31.8 97.1v73.6l43.5-22.2 1.4-23.7zm4 106.2l-29.2 67.6 48.7-3.2 10.7-21.2z"/><path class="d" d="m629 81"/></svg>